%TF.GenerationSoftware,KiCad,Pcbnew,10.0.4*%
%TF.CreationDate,2026-07-29T23:45:27-05:00*%
%TF.ProjectId,pmod_uart_bridge,706d6f64-5f75-4617-9274-5f6272696467,rev?*%
%TF.SameCoordinates,Original*%
%TF.FileFunction,Copper,L2,Bot*%
%TF.FilePolarity,Positive*%
%FSLAX46Y46*%
G04 Gerber Fmt 4.6, Leading zero omitted, Abs format (unit mm)*
G04 Created by KiCad (PCBNEW 10.0.4) date 2026-07-29 23:45:27*
%MOMM*%
%LPD*%
G01*
G04 APERTURE LIST*
%TA.AperFunction,ComponentPad*%
%ADD10O,0.900000X1.700000*%
%TD*%
%TA.AperFunction,ComponentPad*%
%ADD11O,0.900000X2.400000*%
%TD*%
%TA.AperFunction,ComponentPad*%
%ADD12C,0.700000*%
%TD*%
%TA.AperFunction,ComponentPad*%
%ADD13C,1.524000*%
%TD*%
%TA.AperFunction,ComponentPad*%
%ADD14R,1.524000X1.524000*%
%TD*%
%TA.AperFunction,ViaPad*%
%ADD15C,0.600000*%
%TD*%
%TA.AperFunction,Conductor*%
%ADD16C,0.250000*%
%TD*%
%TA.AperFunction,Conductor*%
%ADD17C,0.400000*%
%TD*%
G04 APERTURE END LIST*
D10*
%TO.P,J1,SH,SHIELD_SH*%
%TO.N,GND*%
X145175000Y-51750000D03*
D11*
X145175000Y-55130000D03*
D10*
X153825000Y-51750000D03*
D11*
X153825000Y-55130000D03*
D12*
%TO.P,J1,B12,GND_B12*%
X152475000Y-54760000D03*
%TO.P,J1,B9,VBUS_B9*%
%TO.N,/VBUS_5V*%
X151625000Y-54760000D03*
%TO.P,J1,B8,SBU2_B8*%
%TO.N,unconnected-(J1-SBU2-PadB8)*%
X150775000Y-54760000D03*
%TO.P,J1,B7,D-_B7*%
%TO.N,/D-*%
X149925000Y-54760000D03*
%TO.P,J1,B6,D+_B6*%
%TO.N,/D+*%
X149075000Y-54760000D03*
%TO.P,J1,B5,CC2_B5*%
%TO.N,Net-(J1-CC2)*%
X148225000Y-54760000D03*
%TO.P,J1,B4,VBUS_B4*%
%TO.N,/VBUS_5V*%
X147375000Y-54760000D03*
%TO.P,J1,B1,GND_B1*%
%TO.N,GND*%
X146525000Y-54760000D03*
%TO.P,J1,A12,GND_A12*%
X146525000Y-56110000D03*
%TO.P,J1,A9,VBUS_A9*%
%TO.N,/VBUS_5V*%
X147375000Y-56110000D03*
%TO.P,J1,A8,SBU1_A8*%
%TO.N,unconnected-(J1-SBU1-PadA8)*%
X148225000Y-56110000D03*
%TO.P,J1,A7,D-_A7*%
%TO.N,/D-*%
X149075000Y-56110000D03*
%TO.P,J1,A6,D+_A6*%
%TO.N,/D+*%
X149925000Y-56110000D03*
%TO.P,J1,A5,CC1_A5*%
%TO.N,Net-(J1-CC1)*%
X150775000Y-56110000D03*
%TO.P,J1,A4,VBUS_A4*%
%TO.N,/VBUS_5V*%
X151625000Y-56110000D03*
%TO.P,J1,A1,GND_A1*%
%TO.N,GND*%
X152475000Y-56110000D03*
%TD*%
D13*
%TO.P,PMOD1,12*%
%TO.N,N/C*%
X169000000Y-55170000D03*
%TO.P,PMOD1,11*%
X169000000Y-57710000D03*
%TO.P,PMOD1,10*%
X169000000Y-60250000D03*
%TO.P,PMOD1,9*%
X169000000Y-62790000D03*
%TO.P,PMOD1,8*%
X169000000Y-65330000D03*
%TO.P,PMOD1,7*%
X169000000Y-67870000D03*
%TO.P,PMOD1,6,VCC_6*%
%TO.N,/3V3*%
X166460000Y-55170000D03*
%TO.P,PMOD1,5,GND_5*%
%TO.N,GND*%
X166460000Y-57710000D03*
%TO.P,PMOD1,4,RTS_4*%
%TO.N,Net-(PMOD1-RTS)*%
X166460000Y-60250000D03*
%TO.P,PMOD1,3,RXD_3*%
%TO.N,Net-(PMOD1-RXD)*%
X166460000Y-62790000D03*
%TO.P,PMOD1,2,TXD_2*%
%TO.N,Net-(PMOD1-TXD)*%
X166460000Y-65330000D03*
D14*
%TO.P,PMOD1,1,CTS_1*%
%TO.N,Net-(PMOD1-CTS)*%
X166460000Y-67870000D03*
%TD*%
D15*
%TO.N,Net-(PMOD1-TXD)*%
X152859100Y-65330000D03*
%TO.N,Net-(J1-CC1)*%
X155050200Y-57611800D03*
%TO.N,/3V3*%
X142206700Y-62949500D03*
X148500100Y-58980000D03*
%TD*%
%TO.N,GND*%
D16*
X145175000Y-51750000D02*
X153825000Y-51750000D01*
X153825000Y-55130000D02*
X152845000Y-55130000D01*
X166460000Y-57710000D02*
X156405000Y-57710000D01*
X152475000Y-54276700D02*
X152475000Y-54760000D01*
X145175000Y-55130000D02*
X146155000Y-55130000D01*
%TO.N,/VBUS_5V*%
D17*
X147375000Y-54760000D02*
X147375000Y-54478700D01*
X147375000Y-54478700D02*
X147850400Y-54003300D01*
%TO.N,GND*%
D16*
X153825000Y-51750000D02*
X153825000Y-52926700D01*
X152845000Y-55130000D02*
X152475000Y-54760000D01*
X156405000Y-57710000D02*
X153825000Y-55130000D01*
X146155000Y-55130000D02*
X146525000Y-54760000D01*
X153825000Y-52926700D02*
X152475000Y-54276700D01*
%TO.N,Net-(J1-CC1)*%
X152126400Y-57611800D02*
X150775000Y-56260400D01*
%TO.N,/D-*%
X149925000Y-54937300D02*
X149075000Y-55787300D01*
X149925000Y-54760000D02*
X149925000Y-54937300D01*
%TO.N,Net-(J1-CC1)*%
X155050200Y-57611800D02*
X152126400Y-57611800D01*
%TO.N,/D-*%
X149075000Y-55787300D02*
X149075000Y-56110000D01*
%TO.N,/VBUS_5V*%
D17*
X147850400Y-54003300D02*
X151084700Y-54003300D01*
X151625000Y-54543600D02*
X151625000Y-54760000D01*
X151084700Y-54003300D02*
X151625000Y-54543600D01*
%TO.N,Net-(J1-CC1)*%
D16*
X150775000Y-56260400D02*
X150775000Y-56110000D01*
%TO.N,/3V3*%
D17*
X166913600Y-58980000D02*
X148500100Y-58980000D01*
X167676100Y-56386100D02*
X167676100Y-58217500D01*
X146176200Y-58980000D02*
X142206700Y-62949500D01*
X166460000Y-55170000D02*
X167676100Y-56386100D01*
X167676100Y-58217500D02*
X166913600Y-58980000D01*
X148500100Y-58980000D02*
X146176200Y-58980000D01*
%TO.N,Net-(PMOD1-TXD)*%
D16*
X166460000Y-65330000D02*
X152859100Y-65330000D01*
%TD*%
M02*
