%TF.GenerationSoftware,KiCad,Pcbnew,10.0.4*%
%TF.CreationDate,2026-07-29T23:45:27-05:00*%
%TF.ProjectId,pmod_uart_bridge,706d6f64-5f75-4617-9274-5f6272696467,rev?*%
%TF.SameCoordinates,Original*%
%TF.FileFunction,Paste,Top*%
%TF.FilePolarity,Positive*%
%FSLAX46Y46*%
G04 Gerber Fmt 4.6, Leading zero omitted, Abs format (unit mm)*
G04 Created by KiCad (PCBNEW 10.0.4) date 2026-07-29 23:45:27*
%MOMM*%
%LPD*%
G01*
G04 APERTURE LIST*
G04 Aperture macros list*
%AMRoundRect*
0 Rectangle with rounded corners*
0 $1 Rounding radius*
0 $2 $3 $4 $5 $6 $7 $8 $9 X,Y pos of 4 corners*
0 Add a 4 corners polygon primitive as box body*
4,1,4,$2,$3,$4,$5,$6,$7,$8,$9,$2,$3,0*
0 Add four circle primitives for the rounded corners*
1,1,$1+$1,$2,$3*
1,1,$1+$1,$4,$5*
1,1,$1+$1,$6,$7*
1,1,$1+$1,$8,$9*
0 Add four rect primitives between the rounded corners*
20,1,$1+$1,$2,$3,$4,$5,0*
20,1,$1+$1,$4,$5,$6,$7,0*
20,1,$1+$1,$6,$7,$8,$9,0*
20,1,$1+$1,$8,$9,$2,$3,0*%
G04 Aperture macros list end*
%ADD10RoundRect,0.250000X-0.450000X0.262500X-0.450000X-0.262500X0.450000X-0.262500X0.450000X0.262500X0*%
%ADD11RoundRect,0.062500X-0.337500X0.062500X-0.337500X-0.062500X0.337500X-0.062500X0.337500X0.062500X0*%
%ADD12RoundRect,0.062500X-0.062500X0.337500X-0.062500X-0.337500X0.062500X-0.337500X0.062500X0.337500X0*%
%ADD13RoundRect,0.225000X-0.225000X0.225000X-0.225000X-0.225000X0.225000X-0.225000X0.225000X0.225000X0*%
%ADD14RoundRect,0.250000X0.475000X-0.250000X0.475000X0.250000X-0.475000X0.250000X-0.475000X-0.250000X0*%
%ADD15RoundRect,0.250000X0.250000X0.475000X-0.250000X0.475000X-0.250000X-0.475000X0.250000X-0.475000X0*%
%ADD16RoundRect,0.250000X0.262500X0.450000X-0.262500X0.450000X-0.262500X-0.450000X0.262500X-0.450000X0*%
%ADD17RoundRect,0.250000X-0.250000X-0.475000X0.250000X-0.475000X0.250000X0.475000X-0.250000X0.475000X0*%
%ADD18RoundRect,0.243750X0.243750X0.456250X-0.243750X0.456250X-0.243750X-0.456250X0.243750X-0.456250X0*%
%ADD19RoundRect,0.250000X0.450000X-0.262500X0.450000X0.262500X-0.450000X0.262500X-0.450000X-0.262500X0*%
G04 APERTURE END LIST*
D10*
%TO.C,R2*%
X139000000Y-69075000D03*
X139000000Y-67250000D03*
%TD*%
D11*
%TO.C,U1*%
X151950000Y-67258200D03*
X151950000Y-67758200D03*
X151950000Y-68258200D03*
X151950000Y-68758200D03*
X151950000Y-69258200D03*
X151950000Y-69758200D03*
X151950000Y-70258200D03*
D12*
X151000000Y-71208200D03*
X150500000Y-71208200D03*
X150000000Y-71208200D03*
X149500000Y-71208200D03*
X149000000Y-71208200D03*
X148500000Y-71208200D03*
X148000000Y-71208200D03*
D11*
X147050000Y-70258200D03*
X147050000Y-69758200D03*
X147050000Y-69258200D03*
X147050000Y-68758200D03*
X147050000Y-68258200D03*
X147050000Y-67758200D03*
X147050000Y-67258200D03*
D12*
X148000000Y-66308200D03*
X148500000Y-66308200D03*
X149000000Y-66308200D03*
X149500000Y-66308200D03*
X150000000Y-66308200D03*
X150500000Y-66308200D03*
X151000000Y-66308200D03*
D13*
X148380000Y-69878200D03*
X149500000Y-69878200D03*
X150620000Y-69878200D03*
X148380000Y-68758200D03*
X149500000Y-68758200D03*
X150620000Y-68758200D03*
X148380000Y-67638200D03*
X149500000Y-67638200D03*
X150620000Y-67638200D03*
%TD*%
D10*
%TO.C,R3*%
X158000000Y-60612500D03*
X158000000Y-58787500D03*
%TD*%
D14*
%TO.C,C4*%
X137750000Y-58750000D03*
X137750000Y-60650000D03*
%TD*%
D15*
%TO.C,C2*%
X144600000Y-62250000D03*
X146500000Y-62250000D03*
%TD*%
D16*
%TO.C,R1*%
X141357500Y-65000000D03*
X143182500Y-65000000D03*
%TD*%
D14*
%TO.C,C3*%
X141500000Y-58750000D03*
X141500000Y-60650000D03*
%TD*%
D17*
%TO.C,C1*%
X146500000Y-59000000D03*
X144600000Y-59000000D03*
%TD*%
D18*
%TO.C,D1*%
X141312500Y-71337500D03*
X143187500Y-71337500D03*
%TD*%
D19*
%TO.C,R4*%
X153500000Y-58787500D03*
X153500000Y-60612500D03*
%TD*%
M02*
