%TF.GenerationSoftware,KiCad,Pcbnew,10.0.4*%
%TF.CreationDate,2026-07-29T23:45:27-05:00*%
%TF.ProjectId,pmod_uart_bridge,706d6f64-5f75-4617-9274-5f6272696467,rev?*%
%TF.SameCoordinates,Original*%
%TF.FileFunction,Legend,Top*%
%TF.FilePolarity,Positive*%
%FSLAX46Y46*%
G04 Gerber Fmt 4.6, Leading zero omitted, Abs format (unit mm)*
G04 Created by KiCad (PCBNEW 10.0.4) date 2026-07-29 23:45:27*
%MOMM*%
%LPD*%
G01*
G04 APERTURE LIST*
%ADD10C,0.150000*%
%ADD11C,0.254000*%
%ADD12C,0.120000*%
%ADD13C,0.304800*%
%ADD14C,1.524000*%
%ADD15R,1.524000X1.524000*%
G04 APERTURE END LIST*
D10*
X150977819Y-80761904D02*
X150977819Y-80190476D01*
X151977819Y-80476190D02*
X150977819Y-80476190D01*
X151977819Y-79857142D02*
X150977819Y-79857142D01*
X150977819Y-79857142D02*
X150977819Y-79476190D01*
X150977819Y-79476190D02*
X151025438Y-79380952D01*
X151025438Y-79380952D02*
X151073057Y-79333333D01*
X151073057Y-79333333D02*
X151168295Y-79285714D01*
X151168295Y-79285714D02*
X151311152Y-79285714D01*
X151311152Y-79285714D02*
X151406390Y-79333333D01*
X151406390Y-79333333D02*
X151454009Y-79380952D01*
X151454009Y-79380952D02*
X151501628Y-79476190D01*
X151501628Y-79476190D02*
X151501628Y-79857142D01*
X151073057Y-78904761D02*
X151025438Y-78857142D01*
X151025438Y-78857142D02*
X150977819Y-78761904D01*
X150977819Y-78761904D02*
X150977819Y-78523809D01*
X150977819Y-78523809D02*
X151025438Y-78428571D01*
X151025438Y-78428571D02*
X151073057Y-78380952D01*
X151073057Y-78380952D02*
X151168295Y-78333333D01*
X151168295Y-78333333D02*
X151263533Y-78333333D01*
X151263533Y-78333333D02*
X151406390Y-78380952D01*
X151406390Y-78380952D02*
X151977819Y-78952380D01*
X151977819Y-78952380D02*
X151977819Y-78333333D01*
X158977819Y-80761904D02*
X158977819Y-80190476D01*
X159977819Y-80476190D02*
X158977819Y-80476190D01*
X159977819Y-79857142D02*
X158977819Y-79857142D01*
X158977819Y-79857142D02*
X158977819Y-79476190D01*
X158977819Y-79476190D02*
X159025438Y-79380952D01*
X159025438Y-79380952D02*
X159073057Y-79333333D01*
X159073057Y-79333333D02*
X159168295Y-79285714D01*
X159168295Y-79285714D02*
X159311152Y-79285714D01*
X159311152Y-79285714D02*
X159406390Y-79333333D01*
X159406390Y-79333333D02*
X159454009Y-79380952D01*
X159454009Y-79380952D02*
X159501628Y-79476190D01*
X159501628Y-79476190D02*
X159501628Y-79857142D01*
X159977819Y-78333333D02*
X159977819Y-78904761D01*
X159977819Y-78619047D02*
X158977819Y-78619047D01*
X158977819Y-78619047D02*
X159120676Y-78714285D01*
X159120676Y-78714285D02*
X159215914Y-78809523D01*
X159215914Y-78809523D02*
X159263533Y-78904761D01*
X142977819Y-80761904D02*
X142977819Y-80190476D01*
X143977819Y-80476190D02*
X142977819Y-80476190D01*
X143977819Y-79857142D02*
X142977819Y-79857142D01*
X142977819Y-79857142D02*
X142977819Y-79476190D01*
X142977819Y-79476190D02*
X143025438Y-79380952D01*
X143025438Y-79380952D02*
X143073057Y-79333333D01*
X143073057Y-79333333D02*
X143168295Y-79285714D01*
X143168295Y-79285714D02*
X143311152Y-79285714D01*
X143311152Y-79285714D02*
X143406390Y-79333333D01*
X143406390Y-79333333D02*
X143454009Y-79380952D01*
X143454009Y-79380952D02*
X143501628Y-79476190D01*
X143501628Y-79476190D02*
X143501628Y-79857142D01*
X142977819Y-78952380D02*
X142977819Y-78333333D01*
X142977819Y-78333333D02*
X143358771Y-78666666D01*
X143358771Y-78666666D02*
X143358771Y-78523809D01*
X143358771Y-78523809D02*
X143406390Y-78428571D01*
X143406390Y-78428571D02*
X143454009Y-78380952D01*
X143454009Y-78380952D02*
X143549247Y-78333333D01*
X143549247Y-78333333D02*
X143787342Y-78333333D01*
X143787342Y-78333333D02*
X143882580Y-78380952D01*
X143882580Y-78380952D02*
X143930200Y-78428571D01*
X143930200Y-78428571D02*
X143977819Y-78523809D01*
X143977819Y-78523809D02*
X143977819Y-78809523D01*
X143977819Y-78809523D02*
X143930200Y-78904761D01*
X143930200Y-78904761D02*
X143882580Y-78952380D01*
X142666666Y-52454819D02*
X142666666Y-53169104D01*
X142666666Y-53169104D02*
X142619047Y-53311961D01*
X142619047Y-53311961D02*
X142523809Y-53407200D01*
X142523809Y-53407200D02*
X142380952Y-53454819D01*
X142380952Y-53454819D02*
X142285714Y-53454819D01*
X143666666Y-53454819D02*
X143095238Y-53454819D01*
X143380952Y-53454819D02*
X143380952Y-52454819D01*
X143380952Y-52454819D02*
X143285714Y-52597676D01*
X143285714Y-52597676D02*
X143190476Y-52692914D01*
X143190476Y-52692914D02*
X143095238Y-52740533D01*
X141104819Y-68416666D02*
X140628628Y-68749999D01*
X141104819Y-68988094D02*
X140104819Y-68988094D01*
X140104819Y-68988094D02*
X140104819Y-68607142D01*
X140104819Y-68607142D02*
X140152438Y-68511904D01*
X140152438Y-68511904D02*
X140200057Y-68464285D01*
X140200057Y-68464285D02*
X140295295Y-68416666D01*
X140295295Y-68416666D02*
X140438152Y-68416666D01*
X140438152Y-68416666D02*
X140533390Y-68464285D01*
X140533390Y-68464285D02*
X140581009Y-68511904D01*
X140581009Y-68511904D02*
X140628628Y-68607142D01*
X140628628Y-68607142D02*
X140628628Y-68988094D01*
X140200057Y-68035713D02*
X140152438Y-67988094D01*
X140152438Y-67988094D02*
X140104819Y-67892856D01*
X140104819Y-67892856D02*
X140104819Y-67654761D01*
X140104819Y-67654761D02*
X140152438Y-67559523D01*
X140152438Y-67559523D02*
X140200057Y-67511904D01*
X140200057Y-67511904D02*
X140295295Y-67464285D01*
X140295295Y-67464285D02*
X140390533Y-67464285D01*
X140390533Y-67464285D02*
X140533390Y-67511904D01*
X140533390Y-67511904D02*
X141104819Y-68083332D01*
X141104819Y-68083332D02*
X141104819Y-67464285D01*
X152754819Y-69520104D02*
X153564342Y-69520104D01*
X153564342Y-69520104D02*
X153659580Y-69472485D01*
X153659580Y-69472485D02*
X153707200Y-69424866D01*
X153707200Y-69424866D02*
X153754819Y-69329628D01*
X153754819Y-69329628D02*
X153754819Y-69139152D01*
X153754819Y-69139152D02*
X153707200Y-69043914D01*
X153707200Y-69043914D02*
X153659580Y-68996295D01*
X153659580Y-68996295D02*
X153564342Y-68948676D01*
X153564342Y-68948676D02*
X152754819Y-68948676D01*
X153754819Y-67948676D02*
X153754819Y-68520104D01*
X153754819Y-68234390D02*
X152754819Y-68234390D01*
X152754819Y-68234390D02*
X152897676Y-68329628D01*
X152897676Y-68329628D02*
X152992914Y-68424866D01*
X152992914Y-68424866D02*
X153040533Y-68520104D01*
X160104819Y-59866666D02*
X159628628Y-60199999D01*
X160104819Y-60438094D02*
X159104819Y-60438094D01*
X159104819Y-60438094D02*
X159104819Y-60057142D01*
X159104819Y-60057142D02*
X159152438Y-59961904D01*
X159152438Y-59961904D02*
X159200057Y-59914285D01*
X159200057Y-59914285D02*
X159295295Y-59866666D01*
X159295295Y-59866666D02*
X159438152Y-59866666D01*
X159438152Y-59866666D02*
X159533390Y-59914285D01*
X159533390Y-59914285D02*
X159581009Y-59961904D01*
X159581009Y-59961904D02*
X159628628Y-60057142D01*
X159628628Y-60057142D02*
X159628628Y-60438094D01*
X159104819Y-59533332D02*
X159104819Y-58914285D01*
X159104819Y-58914285D02*
X159485771Y-59247618D01*
X159485771Y-59247618D02*
X159485771Y-59104761D01*
X159485771Y-59104761D02*
X159533390Y-59009523D01*
X159533390Y-59009523D02*
X159581009Y-58961904D01*
X159581009Y-58961904D02*
X159676247Y-58914285D01*
X159676247Y-58914285D02*
X159914342Y-58914285D01*
X159914342Y-58914285D02*
X160009580Y-58961904D01*
X160009580Y-58961904D02*
X160057200Y-59009523D01*
X160057200Y-59009523D02*
X160104819Y-59104761D01*
X160104819Y-59104761D02*
X160104819Y-59390475D01*
X160104819Y-59390475D02*
X160057200Y-59485713D01*
X160057200Y-59485713D02*
X160009580Y-59533332D01*
X136429580Y-59866666D02*
X136477200Y-59914285D01*
X136477200Y-59914285D02*
X136524819Y-60057142D01*
X136524819Y-60057142D02*
X136524819Y-60152380D01*
X136524819Y-60152380D02*
X136477200Y-60295237D01*
X136477200Y-60295237D02*
X136381961Y-60390475D01*
X136381961Y-60390475D02*
X136286723Y-60438094D01*
X136286723Y-60438094D02*
X136096247Y-60485713D01*
X136096247Y-60485713D02*
X135953390Y-60485713D01*
X135953390Y-60485713D02*
X135762914Y-60438094D01*
X135762914Y-60438094D02*
X135667676Y-60390475D01*
X135667676Y-60390475D02*
X135572438Y-60295237D01*
X135572438Y-60295237D02*
X135524819Y-60152380D01*
X135524819Y-60152380D02*
X135524819Y-60057142D01*
X135524819Y-60057142D02*
X135572438Y-59914285D01*
X135572438Y-59914285D02*
X135620057Y-59866666D01*
X135858152Y-59009523D02*
X136524819Y-59009523D01*
X135477200Y-59247618D02*
X136191485Y-59485713D01*
X136191485Y-59485713D02*
X136191485Y-58866666D01*
X145383333Y-64289580D02*
X145335714Y-64337200D01*
X145335714Y-64337200D02*
X145192857Y-64384819D01*
X145192857Y-64384819D02*
X145097619Y-64384819D01*
X145097619Y-64384819D02*
X144954762Y-64337200D01*
X144954762Y-64337200D02*
X144859524Y-64241961D01*
X144859524Y-64241961D02*
X144811905Y-64146723D01*
X144811905Y-64146723D02*
X144764286Y-63956247D01*
X144764286Y-63956247D02*
X144764286Y-63813390D01*
X144764286Y-63813390D02*
X144811905Y-63622914D01*
X144811905Y-63622914D02*
X144859524Y-63527676D01*
X144859524Y-63527676D02*
X144954762Y-63432438D01*
X144954762Y-63432438D02*
X145097619Y-63384819D01*
X145097619Y-63384819D02*
X145192857Y-63384819D01*
X145192857Y-63384819D02*
X145335714Y-63432438D01*
X145335714Y-63432438D02*
X145383333Y-63480057D01*
X145764286Y-63480057D02*
X145811905Y-63432438D01*
X145811905Y-63432438D02*
X145907143Y-63384819D01*
X145907143Y-63384819D02*
X146145238Y-63384819D01*
X146145238Y-63384819D02*
X146240476Y-63432438D01*
X146240476Y-63432438D02*
X146288095Y-63480057D01*
X146288095Y-63480057D02*
X146335714Y-63575295D01*
X146335714Y-63575295D02*
X146335714Y-63670533D01*
X146335714Y-63670533D02*
X146288095Y-63813390D01*
X146288095Y-63813390D02*
X145716667Y-64384819D01*
X145716667Y-64384819D02*
X146335714Y-64384819D01*
X142103333Y-67104819D02*
X141770000Y-66628628D01*
X141531905Y-67104819D02*
X141531905Y-66104819D01*
X141531905Y-66104819D02*
X141912857Y-66104819D01*
X141912857Y-66104819D02*
X142008095Y-66152438D01*
X142008095Y-66152438D02*
X142055714Y-66200057D01*
X142055714Y-66200057D02*
X142103333Y-66295295D01*
X142103333Y-66295295D02*
X142103333Y-66438152D01*
X142103333Y-66438152D02*
X142055714Y-66533390D01*
X142055714Y-66533390D02*
X142008095Y-66581009D01*
X142008095Y-66581009D02*
X141912857Y-66628628D01*
X141912857Y-66628628D02*
X141531905Y-66628628D01*
X143055714Y-67104819D02*
X142484286Y-67104819D01*
X142770000Y-67104819D02*
X142770000Y-66104819D01*
X142770000Y-66104819D02*
X142674762Y-66247676D01*
X142674762Y-66247676D02*
X142579524Y-66342914D01*
X142579524Y-66342914D02*
X142484286Y-66390533D01*
X140179580Y-59866666D02*
X140227200Y-59914285D01*
X140227200Y-59914285D02*
X140274819Y-60057142D01*
X140274819Y-60057142D02*
X140274819Y-60152380D01*
X140274819Y-60152380D02*
X140227200Y-60295237D01*
X140227200Y-60295237D02*
X140131961Y-60390475D01*
X140131961Y-60390475D02*
X140036723Y-60438094D01*
X140036723Y-60438094D02*
X139846247Y-60485713D01*
X139846247Y-60485713D02*
X139703390Y-60485713D01*
X139703390Y-60485713D02*
X139512914Y-60438094D01*
X139512914Y-60438094D02*
X139417676Y-60390475D01*
X139417676Y-60390475D02*
X139322438Y-60295237D01*
X139322438Y-60295237D02*
X139274819Y-60152380D01*
X139274819Y-60152380D02*
X139274819Y-60057142D01*
X139274819Y-60057142D02*
X139322438Y-59914285D01*
X139322438Y-59914285D02*
X139370057Y-59866666D01*
X139274819Y-59533332D02*
X139274819Y-58914285D01*
X139274819Y-58914285D02*
X139655771Y-59247618D01*
X139655771Y-59247618D02*
X139655771Y-59104761D01*
X139655771Y-59104761D02*
X139703390Y-59009523D01*
X139703390Y-59009523D02*
X139751009Y-58961904D01*
X139751009Y-58961904D02*
X139846247Y-58914285D01*
X139846247Y-58914285D02*
X140084342Y-58914285D01*
X140084342Y-58914285D02*
X140179580Y-58961904D01*
X140179580Y-58961904D02*
X140227200Y-59009523D01*
X140227200Y-59009523D02*
X140274819Y-59104761D01*
X140274819Y-59104761D02*
X140274819Y-59390475D01*
X140274819Y-59390475D02*
X140227200Y-59485713D01*
X140227200Y-59485713D02*
X140179580Y-59533332D01*
X148333333Y-59359580D02*
X148285714Y-59407200D01*
X148285714Y-59407200D02*
X148142857Y-59454819D01*
X148142857Y-59454819D02*
X148047619Y-59454819D01*
X148047619Y-59454819D02*
X147904762Y-59407200D01*
X147904762Y-59407200D02*
X147809524Y-59311961D01*
X147809524Y-59311961D02*
X147761905Y-59216723D01*
X147761905Y-59216723D02*
X147714286Y-59026247D01*
X147714286Y-59026247D02*
X147714286Y-58883390D01*
X147714286Y-58883390D02*
X147761905Y-58692914D01*
X147761905Y-58692914D02*
X147809524Y-58597676D01*
X147809524Y-58597676D02*
X147904762Y-58502438D01*
X147904762Y-58502438D02*
X148047619Y-58454819D01*
X148047619Y-58454819D02*
X148142857Y-58454819D01*
X148142857Y-58454819D02*
X148285714Y-58502438D01*
X148285714Y-58502438D02*
X148333333Y-58550057D01*
X149285714Y-59454819D02*
X148714286Y-59454819D01*
X149000000Y-59454819D02*
X149000000Y-58454819D01*
X149000000Y-58454819D02*
X148904762Y-58597676D01*
X148904762Y-58597676D02*
X148809524Y-58692914D01*
X148809524Y-58692914D02*
X148714286Y-58740533D01*
X141511905Y-73442319D02*
X141511905Y-72442319D01*
X141511905Y-72442319D02*
X141750000Y-72442319D01*
X141750000Y-72442319D02*
X141892857Y-72489938D01*
X141892857Y-72489938D02*
X141988095Y-72585176D01*
X141988095Y-72585176D02*
X142035714Y-72680414D01*
X142035714Y-72680414D02*
X142083333Y-72870890D01*
X142083333Y-72870890D02*
X142083333Y-73013747D01*
X142083333Y-73013747D02*
X142035714Y-73204223D01*
X142035714Y-73204223D02*
X141988095Y-73299461D01*
X141988095Y-73299461D02*
X141892857Y-73394700D01*
X141892857Y-73394700D02*
X141750000Y-73442319D01*
X141750000Y-73442319D02*
X141511905Y-73442319D01*
X143035714Y-73442319D02*
X142464286Y-73442319D01*
X142750000Y-73442319D02*
X142750000Y-72442319D01*
X142750000Y-72442319D02*
X142654762Y-72585176D01*
X142654762Y-72585176D02*
X142559524Y-72680414D01*
X142559524Y-72680414D02*
X142464286Y-72728033D01*
D11*
X166121333Y-70612812D02*
X166121333Y-69596812D01*
X166121333Y-69596812D02*
X166508381Y-69596812D01*
X166508381Y-69596812D02*
X166605143Y-69645193D01*
X166605143Y-69645193D02*
X166653524Y-69693574D01*
X166653524Y-69693574D02*
X166701905Y-69790336D01*
X166701905Y-69790336D02*
X166701905Y-69935479D01*
X166701905Y-69935479D02*
X166653524Y-70032241D01*
X166653524Y-70032241D02*
X166605143Y-70080622D01*
X166605143Y-70080622D02*
X166508381Y-70129003D01*
X166508381Y-70129003D02*
X166121333Y-70129003D01*
X167137333Y-70612812D02*
X167137333Y-69596812D01*
X167137333Y-69596812D02*
X167476000Y-70322527D01*
X167476000Y-70322527D02*
X167814667Y-69596812D01*
X167814667Y-69596812D02*
X167814667Y-70612812D01*
X168492000Y-69596812D02*
X168685524Y-69596812D01*
X168685524Y-69596812D02*
X168782286Y-69645193D01*
X168782286Y-69645193D02*
X168879048Y-69741955D01*
X168879048Y-69741955D02*
X168927429Y-69935479D01*
X168927429Y-69935479D02*
X168927429Y-70274146D01*
X168927429Y-70274146D02*
X168879048Y-70467670D01*
X168879048Y-70467670D02*
X168782286Y-70564432D01*
X168782286Y-70564432D02*
X168685524Y-70612812D01*
X168685524Y-70612812D02*
X168492000Y-70612812D01*
X168492000Y-70612812D02*
X168395238Y-70564432D01*
X168395238Y-70564432D02*
X168298476Y-70467670D01*
X168298476Y-70467670D02*
X168250095Y-70274146D01*
X168250095Y-70274146D02*
X168250095Y-69935479D01*
X168250095Y-69935479D02*
X168298476Y-69741955D01*
X168298476Y-69741955D02*
X168395238Y-69645193D01*
X168395238Y-69645193D02*
X168492000Y-69596812D01*
X169362857Y-70612812D02*
X169362857Y-69596812D01*
X169362857Y-69596812D02*
X169604762Y-69596812D01*
X169604762Y-69596812D02*
X169749905Y-69645193D01*
X169749905Y-69645193D02*
X169846667Y-69741955D01*
X169846667Y-69741955D02*
X169895048Y-69838717D01*
X169895048Y-69838717D02*
X169943429Y-70032241D01*
X169943429Y-70032241D02*
X169943429Y-70177384D01*
X169943429Y-70177384D02*
X169895048Y-70370908D01*
X169895048Y-70370908D02*
X169846667Y-70467670D01*
X169846667Y-70467670D02*
X169749905Y-70564432D01*
X169749905Y-70564432D02*
X169604762Y-70612812D01*
X169604762Y-70612812D02*
X169362857Y-70612812D01*
X170911048Y-70612812D02*
X170330476Y-70612812D01*
X170620762Y-70612812D02*
X170620762Y-69596812D01*
X170620762Y-69596812D02*
X170524000Y-69741955D01*
X170524000Y-69741955D02*
X170427238Y-69838717D01*
X170427238Y-69838717D02*
X170330476Y-69887098D01*
D10*
X164459714Y-68324819D02*
X163888286Y-68324819D01*
X164174000Y-68324819D02*
X164174000Y-67324819D01*
X164174000Y-67324819D02*
X164078762Y-67467676D01*
X164078762Y-67467676D02*
X163983524Y-67562914D01*
X163983524Y-67562914D02*
X163888286Y-67610533D01*
X162650095Y-57212438D02*
X162554857Y-57164819D01*
X162554857Y-57164819D02*
X162412000Y-57164819D01*
X162412000Y-57164819D02*
X162269143Y-57212438D01*
X162269143Y-57212438D02*
X162173905Y-57307676D01*
X162173905Y-57307676D02*
X162126286Y-57402914D01*
X162126286Y-57402914D02*
X162078667Y-57593390D01*
X162078667Y-57593390D02*
X162078667Y-57736247D01*
X162078667Y-57736247D02*
X162126286Y-57926723D01*
X162126286Y-57926723D02*
X162173905Y-58021961D01*
X162173905Y-58021961D02*
X162269143Y-58117200D01*
X162269143Y-58117200D02*
X162412000Y-58164819D01*
X162412000Y-58164819D02*
X162507238Y-58164819D01*
X162507238Y-58164819D02*
X162650095Y-58117200D01*
X162650095Y-58117200D02*
X162697714Y-58069580D01*
X162697714Y-58069580D02*
X162697714Y-57736247D01*
X162697714Y-57736247D02*
X162507238Y-57736247D01*
X163126286Y-58164819D02*
X163126286Y-57164819D01*
X163126286Y-57164819D02*
X163697714Y-58164819D01*
X163697714Y-58164819D02*
X163697714Y-57164819D01*
X164173905Y-58164819D02*
X164173905Y-57164819D01*
X164173905Y-57164819D02*
X164412000Y-57164819D01*
X164412000Y-57164819D02*
X164554857Y-57212438D01*
X164554857Y-57212438D02*
X164650095Y-57307676D01*
X164650095Y-57307676D02*
X164697714Y-57402914D01*
X164697714Y-57402914D02*
X164745333Y-57593390D01*
X164745333Y-57593390D02*
X164745333Y-57736247D01*
X164745333Y-57736247D02*
X164697714Y-57926723D01*
X164697714Y-57926723D02*
X164650095Y-58021961D01*
X164650095Y-58021961D02*
X164554857Y-58117200D01*
X164554857Y-58117200D02*
X164412000Y-58164819D01*
X164412000Y-58164819D02*
X164173905Y-58164819D01*
X162078667Y-54624819D02*
X162412000Y-55624819D01*
X162412000Y-55624819D02*
X162745333Y-54624819D01*
X163650095Y-55529580D02*
X163602476Y-55577200D01*
X163602476Y-55577200D02*
X163459619Y-55624819D01*
X163459619Y-55624819D02*
X163364381Y-55624819D01*
X163364381Y-55624819D02*
X163221524Y-55577200D01*
X163221524Y-55577200D02*
X163126286Y-55481961D01*
X163126286Y-55481961D02*
X163078667Y-55386723D01*
X163078667Y-55386723D02*
X163031048Y-55196247D01*
X163031048Y-55196247D02*
X163031048Y-55053390D01*
X163031048Y-55053390D02*
X163078667Y-54862914D01*
X163078667Y-54862914D02*
X163126286Y-54767676D01*
X163126286Y-54767676D02*
X163221524Y-54672438D01*
X163221524Y-54672438D02*
X163364381Y-54624819D01*
X163364381Y-54624819D02*
X163459619Y-54624819D01*
X163459619Y-54624819D02*
X163602476Y-54672438D01*
X163602476Y-54672438D02*
X163650095Y-54720057D01*
X164650095Y-55529580D02*
X164602476Y-55577200D01*
X164602476Y-55577200D02*
X164459619Y-55624819D01*
X164459619Y-55624819D02*
X164364381Y-55624819D01*
X164364381Y-55624819D02*
X164221524Y-55577200D01*
X164221524Y-55577200D02*
X164126286Y-55481961D01*
X164126286Y-55481961D02*
X164078667Y-55386723D01*
X164078667Y-55386723D02*
X164031048Y-55196247D01*
X164031048Y-55196247D02*
X164031048Y-55053390D01*
X164031048Y-55053390D02*
X164078667Y-54862914D01*
X164078667Y-54862914D02*
X164126286Y-54767676D01*
X164126286Y-54767676D02*
X164221524Y-54672438D01*
X164221524Y-54672438D02*
X164364381Y-54624819D01*
X164364381Y-54624819D02*
X164459619Y-54624819D01*
X164459619Y-54624819D02*
X164602476Y-54672438D01*
X164602476Y-54672438D02*
X164650095Y-54720057D01*
X152304819Y-59866666D02*
X151828628Y-60199999D01*
X152304819Y-60438094D02*
X151304819Y-60438094D01*
X151304819Y-60438094D02*
X151304819Y-60057142D01*
X151304819Y-60057142D02*
X151352438Y-59961904D01*
X151352438Y-59961904D02*
X151400057Y-59914285D01*
X151400057Y-59914285D02*
X151495295Y-59866666D01*
X151495295Y-59866666D02*
X151638152Y-59866666D01*
X151638152Y-59866666D02*
X151733390Y-59914285D01*
X151733390Y-59914285D02*
X151781009Y-59961904D01*
X151781009Y-59961904D02*
X151828628Y-60057142D01*
X151828628Y-60057142D02*
X151828628Y-60438094D01*
X151638152Y-59009523D02*
X152304819Y-59009523D01*
X151257200Y-59247618D02*
X151971485Y-59485713D01*
X151971485Y-59485713D02*
X151971485Y-58866666D01*
%TO.C,TP2*%
D12*
X150725000Y-80700000D02*
X148325000Y-80700000D01*
X150725000Y-78300000D02*
X150725000Y-80700000D01*
X148325000Y-80700000D02*
X148325000Y-78300000D01*
X148325000Y-78300000D02*
X150725000Y-78300000D01*
%TO.C,TP1*%
X158725000Y-80700000D02*
X156325000Y-80700000D01*
X158725000Y-78300000D02*
X158725000Y-80700000D01*
X156325000Y-80700000D02*
X156325000Y-78300000D01*
X156325000Y-78300000D02*
X158725000Y-78300000D01*
%TO.C,TP3*%
X142725000Y-80700000D02*
X140325000Y-80700000D01*
X142725000Y-78300000D02*
X142725000Y-80700000D01*
X140325000Y-80700000D02*
X140325000Y-78300000D01*
X140325000Y-78300000D02*
X142725000Y-78300000D01*
%TO.C,J1*%
X154095000Y-53710000D02*
X154095000Y-52810000D01*
X154095000Y-50110000D02*
X154095000Y-47380000D01*
X154095000Y-47380000D02*
X144905000Y-47380000D01*
X153975000Y-56790000D02*
X145025000Y-56790000D01*
X144905000Y-53710000D02*
X144905000Y-52810000D01*
X144905000Y-50110000D02*
X144905000Y-47380000D01*
%TO.C,R2*%
X139735000Y-67935436D02*
X139735000Y-68389564D01*
X138265000Y-67935436D02*
X138265000Y-68389564D01*
%TO.C,U1*%
X151000000Y-65648200D02*
X150760000Y-65318200D01*
X151240000Y-65318200D01*
X151000000Y-65648200D01*
G36*
X151000000Y-65648200D02*
G01*
X150760000Y-65318200D01*
X151240000Y-65318200D01*
X151000000Y-65648200D01*
G37*
X152110000Y-71368200D02*
X151385000Y-71368200D01*
X152110000Y-70643200D02*
X152110000Y-71368200D01*
X152110000Y-66148200D02*
X152110000Y-66873200D01*
X151385000Y-66148200D02*
X152110000Y-66148200D01*
X147615000Y-71368200D02*
X146890000Y-71368200D01*
X146890000Y-71368200D02*
X146890000Y-70643200D01*
X146890000Y-66873200D02*
X146890000Y-66148200D01*
X146890000Y-66148200D02*
X147615000Y-66148200D01*
%TO.C,R3*%
X158735000Y-59472936D02*
X158735000Y-59927064D01*
X157265000Y-59472936D02*
X157265000Y-59927064D01*
%TO.C,C4*%
X138485000Y-59961252D02*
X138485000Y-59438748D01*
X137015000Y-59961252D02*
X137015000Y-59438748D01*
%TO.C,C2*%
X145811252Y-62985000D02*
X145288748Y-62985000D01*
X145811252Y-61515000D02*
X145288748Y-61515000D01*
%TO.C,R1*%
X142497064Y-65735000D02*
X142042936Y-65735000D01*
X142497064Y-64265000D02*
X142042936Y-64265000D01*
%TO.C,C3*%
X142235000Y-59961252D02*
X142235000Y-59438748D01*
X140765000Y-59961252D02*
X140765000Y-59438748D01*
%TO.C,C1*%
X145288748Y-59735000D02*
X145811252Y-59735000D01*
X145288748Y-58265000D02*
X145811252Y-58265000D01*
%TO.C,D1*%
X143935000Y-72297500D02*
X143935000Y-70377500D01*
X143935000Y-70377500D02*
X141250000Y-70377500D01*
X141250000Y-72297500D02*
X143935000Y-72297500D01*
%TO.C,PMOD1*%
D13*
X170270000Y-69140000D02*
X170270000Y-53900000D01*
X170270000Y-53900000D02*
X165190000Y-53900000D01*
X165190000Y-69140000D02*
X170270000Y-69140000D01*
X165190000Y-58980000D02*
X170270000Y-58980000D01*
X165190000Y-53900000D02*
X165190000Y-69140000D01*
%TO.C,R4*%
D12*
X154235000Y-59927064D02*
X154235000Y-59472936D01*
X152765000Y-59927064D02*
X152765000Y-59472936D01*
%TD*%
D14*
%TO.C,PMOD1*%
X169000000Y-55170000D03*
X169000000Y-57710000D03*
X169000000Y-60250000D03*
X169000000Y-62790000D03*
X169000000Y-65330000D03*
X169000000Y-67870000D03*
X166460000Y-55170000D03*
X166460000Y-57710000D03*
X166460000Y-60250000D03*
X166460000Y-62790000D03*
X166460000Y-65330000D03*
D15*
X166460000Y-67870000D03*
%TD*%
M02*
