M48
; DRILL file KiCad 10.0.4 date 2026-07-29T23:45:38
; FORMAT={-:-/ absolute / metric / decimal}
; #@! TF.CreationDate,2026-07-29T23:45:38-05:00
; #@! TF.GenerationSoftware,Kicad,Pcbnew,10.0.4
; #@! TF.FileFunction,Plated,1,2,PTH
FMAT,2
METRIC
; #@! TA.AperFunction,Plated,PTH,ViaDrill
T1C0.300
; #@! TA.AperFunction,Plated,PTH,ComponentDrill
T2C0.400
; #@! TA.AperFunction,Plated,PTH,ComponentDrill
T3C0.600
; #@! TA.AperFunction,Plated,PTH,ComponentDrill
T4C1.016
%
G90
G05
T1
X142.207Y-62.95
X148.5Y-58.98
X152.859Y-65.33
X155.05Y-57.612
T2
X146.525Y-54.76
X146.525Y-56.11
X147.375Y-54.76
X147.375Y-56.11
X148.225Y-54.76
X148.225Y-56.11
X149.075Y-54.76
X149.075Y-56.11
X149.925Y-54.76
X149.925Y-56.11
X150.775Y-54.76
X150.775Y-56.11
X151.625Y-54.76
X151.625Y-56.11
X152.475Y-54.76
X152.475Y-56.11
T4
X166.46Y-55.17
X166.46Y-57.71
X166.46Y-60.25
X166.46Y-62.79
X166.46Y-65.33
X166.46Y-67.87
X169.0Y-55.17
X169.0Y-57.71
X169.0Y-60.25
X169.0Y-62.79
X169.0Y-65.33
X169.0Y-67.87
T3
X145.175Y-52.15G85X145.175Y-51.35
G05
X145.175Y-55.88G85X145.175Y-54.38
G05
X153.825Y-52.15G85X153.825Y-51.35
G05
X153.825Y-55.88G85X153.825Y-54.38
G05
M30
